<svg width="100%" height="100%" id="svg" viewBox="0 0 1440 590" xmlns="http://www.w3.org/2000/svg" class="transition duration-300 ease-in-out delay-150"><defs><linearGradient id="gradient" x1="0%" y1="50%" x2="100%" y2="50%"><stop offset="5%" stop-color="#0693e3"></stop><stop offset="95%" stop-color="#8ED1FC"></stop></linearGradient></defs><path d="M 0,600 C 0,600 0,120 0,120 C 127.82142857142856,117.25 255.6428571428571,114.5 390,116 C 524.3571428571429,117.5 665.2499999999999,123.25 783,122 C 900.7500000000001,120.75 995.3571428571429,112.5 1101,111 C 1206.642857142857,109.5 1323.3214285714284,114.75 1440,120 C 1440,120 1440,600 1440,600 Z" stroke="none" stroke-width="0" fill="url(#gradient)" fill-opacity="0.265" class="transition-all duration-300 ease-in-out delay-150 path-0" transform="rotate(-180 720 300)"></path><defs><linearGradient id="gradient" x1="0%" y1="50%" x2="100%" y2="50%"><stop offset="5%" stop-color="#0693e3"></stop><stop offset="95%" stop-color="#8ED1FC"></stop></linearGradient></defs><path d="M 0,600 C 0,600 0,240 0,240 C 98.5,253.89285714285714 197,267.7857142857143 308,260 C 419,252.21428571428572 542.5,222.75 660,221 C 777.5,219.25 889,245.21428571428572 1018,253 C 1147,260.7857142857143 1293.5,250.39285714285714 1440,240 C 1440,240 1440,600 1440,600 Z" stroke="none" stroke-width="0" fill="url(#gradient)" fill-opacity="0.4" class="transition-all duration-300 ease-in-out delay-150 path-1" transform="rotate(-180 720 300)"></path><defs><linearGradient id="gradient" x1="0%" y1="50%" x2="100%" y2="50%"><stop offset="5%" stop-color="#0693e3"></stop><stop offset="95%" stop-color="#8ED1FC"></stop></linearGradient></defs><path d="M 0,600 C 0,600 0,360 0,360 C 121.82142857142858,371.4642857142857 243.64285714285717,382.92857142857144 373,387 C 502.35714285714283,391.07142857142856 639.25,387.75000000000006 744,374 C 848.75,360.24999999999994 921.3571428571429,336.07142857142856 1032,332 C 1142.642857142857,327.92857142857144 1291.3214285714284,343.9642857142857 1440,360 C 1440,360 1440,600 1440,600 Z" stroke="none" stroke-width="0" fill="url(#gradient)" fill-opacity="0.53" class="transition-all duration-300 ease-in-out delay-150 path-2" transform="rotate(-180 720 300)"></path><defs><linearGradient id="gradient" x1="0%" y1="50%" x2="100%" y2="50%"><stop offset="5%" stop-color="#0693e3"></stop><stop offset="95%" stop-color="#8ED1FC"></stop></linearGradient></defs><path d="M 0,600 C 0,600 0,480 0,480 C 147.71428571428572,480.5 295.42857142857144,481 407,479 C 518.5714285714286,477 594.0000000000001,472.5 693,462 C 791.9999999999999,451.5 914.5714285714284,435 1043,437 C 1171.4285714285716,439 1305.7142857142858,459.5 1440,480 C 1440,480 1440,600 1440,600 Z" stroke="none" stroke-width="0" fill="url(#gradient)" fill-opacity="1" class="transition-all duration-300 ease-in-out delay-150 path-3" transform="rotate(-180 720 300)"></path></svg>