<svg xmlns="http://www.w3.org/2000/svg" width="119.992" height="28.068" viewBox="0 0 119.992 28.068"><defs><style>.a{fill:#007ee5;}.b{fill:#00ebeb;}.c{fill:#002a4c;}</style></defs><g transform="translate(-257.53 -349.63)"><path class="a" d="M554.516,361.434h-.048a5.647,5.647,0,0,1-5.647-5.647h0a5.647,5.647,0,0,1,5.647-5.647h.048a5.647,5.647,0,0,1,5.647,5.647h0A5.647,5.647,0,0,1,554.516,361.434Z" transform="translate(-182.641 -0.32)"/><path class="b" d="M463.846,405.7H463.8a5.647,5.647,0,0,1-5.647-5.647h0a5.647,5.647,0,0,1,5.647-5.647h.048a5.647,5.647,0,0,1,5.647,5.647h0A5.647,5.647,0,0,1,463.846,405.7Z" transform="translate(-125.79 -28.077)"/><rect class="b" width="28.75" height="11.343" rx="5.671" transform="translate(332.356 349.664)"/><path class="a" d="M530.9,400.011h0a5.673,5.673,0,0,1-5.673,5.671h-17.4a5.672,5.672,0,0,1-5.673-5.671h0a5.672,5.672,0,0,1,5.673-5.671h17.4A5.672,5.672,0,0,1,530.9,400.011Z" transform="translate(-153.378 -28.033)"/><path class="c" d="M402.644,352.01l-9.534,2.07.142,1.928,9.534-2.029Z" transform="translate(-85.01 -1.492)"/><path class="c" d="M319.493,359.246v8.609h-1.887q-1.794,0-1.794-2.1v-5.17h-3.969v5.807a1.154,1.154,0,0,1-.623,1.19,3.728,3.728,0,0,1-1.492.272,2.174,2.174,0,0,1-1.656-.563,2.145,2.145,0,0,1-.533-1.537v-5.17h-3.9v5.807a2.236,2.236,0,0,1-.119.809.91.91,0,0,1-.4.44,1.7,1.7,0,0,1-.716.183c-.295,0-.664.03-1.119.03h-3.618v-1.947a7.688,7.688,0,0,0-1.615-5.188,5.979,5.979,0,0,0-4.8-1.865,6.971,6.971,0,0,0-1.977.287,7.628,7.628,0,0,0-1.865.839,8.054,8.054,0,0,0-1.611,1.305,7.489,7.489,0,0,0-1.22,1.675V349.63h-3.905v18.224H268.079a3.189,3.189,0,0,1-.806-.1,2.049,2.049,0,0,1-.746-.351,1.863,1.863,0,0,1-.518-.642,2.239,2.239,0,0,1-.2-1v-5.17h-3.95v9.064a15,15,0,0,1-.108,1.932,3.047,3.047,0,0,1-.47,1.339,2.074,2.074,0,0,1-1.1.776,6.87,6.87,0,0,1-1.977.272v3.73a14.255,14.255,0,0,0,3.357-.4,5.3,5.3,0,0,0,2.324-1.216,5.19,5.19,0,0,0,1.38-2.238,11.734,11.734,0,0,0,.492-3.454,2.359,2.359,0,0,0,1.216.791c.22.056.418.1.593.131h.063a3.568,3.568,0,0,0,.373.034h33.226a17.855,17.855,0,0,0,3.357-.257,3.457,3.457,0,0,0,2.13-1.324,4.191,4.191,0,0,0,1.492,1.078,5.967,5.967,0,0,0,2.611.5c.324,0,.664,0,1.018-.03a5.312,5.312,0,0,0,1.082-.183,3.968,3.968,0,0,0,1.063-.474,3.728,3.728,0,0,0,.974-.9,3.513,3.513,0,0,0,1.4,1.2,6.036,6.036,0,0,0,2.436.373h4.655V359.246Zm-25.77,8.609h-8.952a9.843,9.843,0,0,1,1.022-2.051,8.568,8.568,0,0,1,1.414-1.69,6.268,6.268,0,0,1,1.7-1.141,4.433,4.433,0,0,1,1.824-.41,3.4,3.4,0,0,1,1.414.257,2.441,2.441,0,0,1,.914.7,2.8,2.8,0,0,1,.5,1.048,5.541,5.541,0,0,1,.149,1.339Z" transform="translate(-0.426)"/><path class="c" d="M402,352.01l-9.534,2.07.142,1.928,9.537-2.029Z" transform="translate(-84.608 -1.492)"/><path class="c" d="M318.828,359.246v8.609H316.94q-1.794,0-1.794-2.1v-5.17h-3.954v5.807a1.156,1.156,0,0,1-.627,1.19,3.728,3.728,0,0,1-1.492.272,2.179,2.179,0,0,1-1.66-.563,2.145,2.145,0,0,1-.533-1.537v-5.17h-3.9v5.807a2.211,2.211,0,0,1-.123.809.891.891,0,0,1-.4.44,1.7,1.7,0,0,1-.716.183c-.295,0-.664.03-1.119.03h-3.618v-1.947a7.7,7.7,0,0,0-1.611-5.188,5.977,5.977,0,0,0-4.808-1.865,7,7,0,0,0-1.977.287,7.7,7.7,0,0,0-1.865.839,8.147,8.147,0,0,0-1.611,1.305,7.586,7.586,0,0,0-1.216,1.675V349.63H280.01v18.224H267.4a3.189,3.189,0,0,1-.806-.1,2.049,2.049,0,0,1-.746-.351,1.863,1.863,0,0,1-.518-.642,2.239,2.239,0,0,1-.2-1v-5.17h-3.954v9.064a15.067,15.067,0,0,1-.1,1.932,3.05,3.05,0,0,1-.474,1.339,2.078,2.078,0,0,1-1.093.776,6.921,6.921,0,0,1-1.981.272v3.73a14.313,14.313,0,0,0,3.357-.4,5.329,5.329,0,0,0,2.324-1.216,5.26,5.26,0,0,0,1.38-2.238,11.619,11.619,0,0,0,.489-3.454,2.373,2.373,0,0,0,1.216.791c.22.056.418.1.593.131h.067a3.464,3.464,0,0,0,.373.034h33.223a17.855,17.855,0,0,0,3.357-.257,3.457,3.457,0,0,0,2.13-1.324,4.191,4.191,0,0,0,1.492,1.078,6,6,0,0,0,2.611.5c.325,0,.664,0,1.022-.03a5.277,5.277,0,0,0,1.078-.183,4.026,4.026,0,0,0,1.067-.474,3.87,3.87,0,0,0,.974-.9,3.491,3.491,0,0,0,1.4,1.2,6.01,6.01,0,0,0,2.432.373h4.655V359.246Zm-25.766,8.609h-8.952a9.642,9.642,0,0,1,1.018-2.051,8.724,8.724,0,0,1,1.414-1.69,6.268,6.268,0,0,1,1.7-1.141,4.433,4.433,0,0,1,1.824-.41,3.424,3.424,0,0,1,1.417.257,2.425,2.425,0,0,1,.91.7,2.688,2.688,0,0,1,.5,1.048,5.543,5.543,0,0,1,.153,1.339Z"/><path class="c" d="M402.644,352.01l-9.534,2.07.142,1.928,9.534-2.029Z" transform="translate(-85.01 -1.492)"/><path class="c" d="M319.493,359.246v8.609h-1.887q-1.794,0-1.794-2.1v-5.17h-3.969v5.807a1.154,1.154,0,0,1-.623,1.19,3.728,3.728,0,0,1-1.492.272,2.174,2.174,0,0,1-1.656-.563,2.145,2.145,0,0,1-.533-1.537v-5.17h-3.9v5.807a2.236,2.236,0,0,1-.119.809.91.91,0,0,1-.4.44,1.7,1.7,0,0,1-.716.183c-.295,0-.664.03-1.119.03h-3.618v-1.947a7.688,7.688,0,0,0-1.615-5.188,5.979,5.979,0,0,0-4.8-1.865,6.971,6.971,0,0,0-1.977.287,7.628,7.628,0,0,0-1.865.839,8.054,8.054,0,0,0-1.611,1.305,7.489,7.489,0,0,0-1.22,1.675V349.63h-3.905v18.224H268.079a3.189,3.189,0,0,1-.806-.1,2.049,2.049,0,0,1-.746-.351,1.863,1.863,0,0,1-.518-.642,2.239,2.239,0,0,1-.2-1v-5.17h-3.95v9.064a15,15,0,0,1-.108,1.932,3.047,3.047,0,0,1-.47,1.339,2.074,2.074,0,0,1-1.1.776,6.87,6.87,0,0,1-1.977.272v3.73a14.255,14.255,0,0,0,3.357-.4,5.3,5.3,0,0,0,2.324-1.216,5.19,5.19,0,0,0,1.38-2.238,11.734,11.734,0,0,0,.492-3.454,2.359,2.359,0,0,0,1.216.791c.22.056.418.1.593.131h.063a3.568,3.568,0,0,0,.373.034h33.226a17.855,17.855,0,0,0,3.357-.257,3.457,3.457,0,0,0,2.13-1.324,4.191,4.191,0,0,0,1.492,1.078,5.967,5.967,0,0,0,2.611.5c.324,0,.664,0,1.018-.03a5.312,5.312,0,0,0,1.082-.183,3.968,3.968,0,0,0,1.063-.474,3.728,3.728,0,0,0,.974-.9,3.513,3.513,0,0,0,1.4,1.2,6.036,6.036,0,0,0,2.436.373h4.655V359.246Zm-25.77,8.609h-8.952a9.843,9.843,0,0,1,1.022-2.051,8.568,8.568,0,0,1,1.414-1.69,6.268,6.268,0,0,1,1.7-1.141,4.433,4.433,0,0,1,1.824-.41,3.4,3.4,0,0,1,1.414.257,2.441,2.441,0,0,1,.914.7,2.8,2.8,0,0,1,.5,1.048,5.541,5.541,0,0,1,.149,1.339Z" transform="translate(-0.426)"/></g></svg>